<!DOCTYPE svg PUBLIC "-//W3C//DTD SVG 1.1//EN" "http://www.w3.org/Graphics/SVG/1.1/DTD/svg11.dtd">
<!-- Uploaded to: SVG Repo, www.svgrepo.com, Transformed by: SVG Repo Mixer Tools -->
<svg fill="#007bff" version="1.1" id="Capa_1" xmlns="http://www.w3.org/2000/svg" xmlns:xlink="http://www.w3.org/1999/xlink" width="800px" height="800px" viewBox="0 0 391.025 391.026" xml:space="preserve">
<g id="SVGRepo_bgCarrier" stroke-width="0"/>
<g id="SVGRepo_tracerCarrier" stroke-linecap="round" stroke-linejoin="round"/>
<g id="SVGRepo_iconCarrier"> <g> <path d="M375.299,43.458c-26.928-29.376-67.932-37.332-104.04-20.808c-20.195,9.792-32.436,36.108-42.228,54.468 c-12.853,24.48-28.152,45.288-45.289,65.484c-1.836-1.224-3.672-3.06-5.508-4.284c-6.12-53.244-15.912-113.22-67.932-131.58 C59.506-11.622,9.323,19.59,0.754,72.833c-11.016,68.544,101.592,106.488,140.148,59.976c0.612,1.224,0.612,1.836,1.224,3.06 c0.612,2.448,1.836,5.508,2.448,7.956c0.612,1.224,1.224,2.448,2.448,3.06c2.448,4.284,4.896,9.18,7.956,13.464 c1.836,3.672,3.06,7.344,4.896,11.016c-25.092,31.212-41.616,67.32-53.244,105.876c-9.792,31.824-22.644,81.396,2.448,109.548 c2.448,2.448,5.508,3.061,7.956,1.836c3.672,1.836,8.568,1.225,9.792-3.672c9.792-45.899,53.244-78.336,73.441-118.728l0,0 c15.911,36.72,33.659,73.439,56.304,106.487c3.06,4.284,10.403,5.509,12.852,0c29.376-64.872,7.345-141.372-40.392-191.556 c3.672-11.016,7.956-21.42,13.464-31.824c8.568-15.3,50.184,16.524,62.424,20.808c17.136,5.508,39.168-3.672,52.021-15.3 C387.539,127.914,405.899,77.118,375.299,43.458z M135.395,111.39c-9.792,32.436-83.844,15.912-93.024-10.404 c-8.568-23.868,6.12-43.452,28.764-49.572c30.6-8.568,54.468,15.912,63.648,41.616c1.224,2.448,1.836,4.896,2.448,7.344 C134.783,103.434,134.17,108.33,135.395,111.39z M149.471,72.222c-3.06-6.12-6.12-12.24-9.18-17.748 c-0.612-1.836-1.836-3.672-2.448-6.12C142.739,55.698,146.411,63.654,149.471,72.222L149.471,72.222z M130.499,265.001 c0-0.611,0-0.611,0-1.224c3.06-5.508,6.12-10.404,9.792-15.3c0,1.224,0.612,1.836,0.612,3.06 C137.843,256.434,134.17,260.717,130.499,265.001z M157.427,144.438v-0.612c0-0.612,0-1.224,0-1.836s0-1.224,0-1.836 c0.612,0.612,1.224,1.836,1.836,2.448c0,2.448,0.612,4.284,0.612,6.12C159.263,147.498,158.039,146.274,157.427,144.438z M295.127,31.218c-4.896,3.06-10.404,6.12-15.3,10.404c0.612-1.836,1.836-3.06,2.448-4.896c2.447-1.224,5.508-3.06,8.567-3.672 C292.067,31.83,293.291,31.218,295.127,31.218z M268.812,87.522c3.06-16.524,14.075-33.048,30.6-37.332 c23.256-6.732,47.124,23.256,43.452,44.064c-2.448,13.464-14.688,22.644-26.316,26.928c-13.464,4.896-24.479-0.612-37.943-1.224 C270.035,112.002,266.363,100.986,268.812,87.522z"/> </g> </g>
</svg>