<svg width="1440" height="1024" viewBox="0 0 1440 1024" fill="none" xmlns="http://www.w3.org/2000/svg">
<rect width="1440" height="1024" fill="white"/>
<g filter="url(#filter0_d_1_2)">
<circle cx="346" cy="512" r="231.5" fill="url(#paint0_linear_1_2)" stroke="#EAE4E4"/>
<g filter="url(#filter1_d_1_2)">
<path d="M578 507.89C578 636.02 473.107 739.89 346 739.89C121 730 483.436 672.298 478.5 502C456.288 306.253 3 554 170 389C298.13 389 578 379.76 578 507.89Z" fill="url(#paint1_linear_1_2)" shape-rendering="crispEdges"/>
<path d="M578 512C578 640.13 474.13 744 346 744C217.87 744 114 640.13 114 512C114 383.87 217.87 280 346 280C474.13 280 578 383.87 578 512Z" fill="url(#paint2_linear_1_2)" shape-rendering="crispEdges"/>
<path d="M578 507.89C578 636.02 473.106 739.89 346 739.89C100.426 727.549 481.745 670.783 476.809 500.485C454.596 304.738 109.064 440.017 346 284.528C474.13 284.528 578 379.76 578 507.89Z" fill="url(#paint3_linear_1_2)" shape-rendering="crispEdges"/>
<path d="M477.675 512C477.675 584.722 418.722 643.676 346 643.676C273.277 643.676 214.324 584.722 214.324 512C214.324 439.278 273.277 380.324 346 380.324C418.722 380.324 477.675 439.278 477.675 512Z" fill="url(#paint4_linear_1_2)" shape-rendering="crispEdges"/>
<path d="M405.568 512C405.568 544.899 378.898 571.568 346 571.568C313.102 571.568 286.433 544.899 286.433 512C286.433 479.102 313.102 452.433 346 452.433C378.898 452.433 405.568 479.102 405.568 512Z" fill="url(#paint5_linear_1_2)" shape-rendering="crispEdges"/>
</g>
<g filter="url(#filter2_d_1_2)">
<circle cx="346" cy="512" r="131.676" fill="url(#paint6_linear_1_2)" shape-rendering="crispEdges"/>
<circle cx="346" cy="512" r="131.176" stroke="#EAE4E4" shape-rendering="crispEdges"/>
</g>
<g filter="url(#filter3_d_1_2)">
<circle cx="346" cy="512" r="59.5675" fill="#2E89E9"/>
<circle cx="346" cy="512" r="59.5675" stroke="#FFECEC" stroke-width="30"/>
</g>
</g>
<path d="M831.544 609V594.696H826.84V592.2H838.984V594.696H834.136V609H831.544ZM840.126 609V596.4H842.622V600.36L842.382 599.4C842.558 598.792 842.854 598.24 843.27 597.744C843.702 597.248 844.19 596.856 844.734 596.568C845.294 596.28 845.87 596.136 846.462 596.136C846.734 596.136 846.99 596.16 847.23 596.208C847.486 596.256 847.686 596.312 847.83 596.376L847.182 599.064C846.99 598.984 846.774 598.92 846.534 598.872C846.31 598.808 846.086 598.776 845.862 598.776C845.43 598.776 845.014 598.864 844.614 599.04C844.23 599.2 843.886 599.432 843.582 599.736C843.294 600.024 843.062 600.368 842.886 600.768C842.71 601.152 842.622 601.576 842.622 602.04V609H840.126ZM854.115 609.24C853.075 609.24 852.123 608.952 851.259 608.376C850.411 607.8 849.731 607.016 849.219 606.024C848.707 605.032 848.451 603.912 848.451 602.664C848.451 601.4 848.707 600.28 849.219 599.304C849.747 598.312 850.451 597.536 851.331 596.976C852.227 596.416 853.227 596.136 854.331 596.136C854.987 596.136 855.587 596.232 856.131 596.424C856.675 596.616 857.147 596.888 857.547 597.24C857.963 597.576 858.299 597.968 858.555 598.416C858.827 598.864 858.995 599.344 859.059 599.856L858.507 599.664V596.4H861.003V609H858.507V606L859.083 605.832C858.987 606.264 858.787 606.688 858.483 607.104C858.195 607.504 857.819 607.864 857.355 608.184C856.907 608.504 856.403 608.76 855.843 608.952C855.299 609.144 854.723 609.24 854.115 609.24ZM854.763 606.96C855.515 606.96 856.179 606.776 856.755 606.408C857.331 606.04 857.779 605.536 858.099 604.896C858.435 604.24 858.603 603.496 858.603 602.664C858.603 601.848 858.435 601.12 858.099 600.48C857.779 599.84 857.331 599.336 856.755 598.968C856.179 598.6 855.515 598.416 854.763 598.416C854.027 598.416 853.371 598.6 852.795 598.968C852.235 599.336 851.787 599.84 851.451 600.48C851.131 601.12 850.971 601.848 850.971 602.664C850.971 603.496 851.131 604.24 851.451 604.896C851.787 605.536 852.235 606.04 852.795 606.408C853.371 606.776 854.027 606.96 854.763 606.96ZM864.455 609V596.4H866.927V598.992L866.495 599.28C866.655 598.72 866.967 598.208 867.431 597.744C867.895 597.264 868.447 596.88 869.087 596.592C869.727 596.288 870.383 596.136 871.055 596.136C872.015 596.136 872.815 596.328 873.455 596.712C874.095 597.08 874.575 597.648 874.895 598.416C875.215 599.184 875.375 600.152 875.375 601.32V609H872.903V601.488C872.903 600.768 872.807 600.176 872.615 599.712C872.423 599.232 872.127 598.888 871.727 598.68C871.327 598.456 870.831 598.36 870.239 598.392C869.759 598.392 869.319 598.472 868.919 598.632C868.519 598.776 868.167 598.984 867.863 599.256C867.575 599.528 867.343 599.848 867.167 600.216C867.007 600.568 866.927 600.952 866.927 601.368V609H865.703C865.495 609 865.287 609 865.079 609C864.871 609 864.663 609 864.455 609ZM882.928 609.24C881.872 609.24 880.92 609.056 880.072 608.688C879.224 608.32 878.52 607.776 877.96 607.056L879.64 605.616C880.12 606.176 880.64 606.584 881.2 606.84C881.776 607.08 882.424 607.2 883.144 607.2C883.432 607.2 883.696 607.168 883.936 607.104C884.192 607.024 884.408 606.912 884.584 606.768C884.776 606.624 884.92 606.456 885.016 606.264C885.112 606.056 885.16 605.832 885.16 605.592C885.16 605.176 885.008 604.84 884.704 604.584C884.544 604.472 884.288 604.352 883.936 604.224C883.6 604.08 883.16 603.936 882.616 603.792C881.688 603.552 880.928 603.28 880.336 602.976C879.744 602.672 879.288 602.328 878.968 601.944C878.728 601.64 878.552 601.312 878.44 600.96C878.328 600.592 878.272 600.192 878.272 599.76C878.272 599.232 878.384 598.752 878.608 598.32C878.848 597.872 879.168 597.488 879.568 597.168C879.984 596.832 880.464 596.576 881.008 596.4C881.568 596.224 882.16 596.136 882.784 596.136C883.376 596.136 883.96 596.216 884.536 596.376C885.128 596.536 885.672 596.768 886.168 597.072C886.664 597.376 887.08 597.736 887.416 598.152L886 599.712C885.696 599.408 885.36 599.144 884.992 598.92C884.64 598.68 884.28 598.496 883.912 598.368C883.544 598.24 883.208 598.176 882.904 598.176C882.568 598.176 882.264 598.208 881.992 598.272C881.72 598.336 881.488 598.432 881.296 598.56C881.12 598.688 880.984 598.848 880.888 599.04C880.792 599.232 880.744 599.448 880.744 599.688C880.76 599.896 880.808 600.096 880.888 600.288C880.984 600.464 881.112 600.616 881.272 600.744C881.448 600.872 881.712 601.008 882.064 601.152C882.416 601.296 882.864 601.432 883.408 601.56C884.208 601.768 884.864 602 885.376 602.256C885.904 602.496 886.32 602.776 886.624 603.096C886.944 603.4 887.168 603.752 887.296 604.152C887.424 604.552 887.488 605 887.488 605.496C887.488 606.216 887.28 606.864 886.864 607.44C886.464 608 885.92 608.44 885.232 608.76C884.544 609.08 883.776 609.24 882.928 609.24ZM891.58 609V594.984C891.58 594.264 891.74 593.624 892.06 593.064C892.38 592.504 892.82 592.064 893.38 591.744C893.94 591.424 894.588 591.264 895.324 591.264C895.836 591.264 896.316 591.36 896.764 591.552C897.212 591.744 897.572 592 897.844 592.32L897.004 594.216C896.796 594.024 896.564 593.872 896.308 593.76C896.068 593.632 895.836 593.568 895.612 593.568C895.276 593.568 894.988 593.624 894.748 593.736C894.524 593.832 894.356 593.992 894.244 594.216C894.132 594.424 894.076 594.68 894.076 594.984V609H892.828C892.62 609 892.412 609 892.204 609C891.996 609 891.788 609 891.58 609ZM889.564 598.896V596.616H897.052V598.896H889.564ZM904.83 609.24C903.598 609.24 902.494 608.96 901.518 608.4C900.558 607.824 899.798 607.048 899.238 606.072C898.678 605.08 898.398 603.952 898.398 602.688C898.398 601.424 898.678 600.304 899.238 599.328C899.798 598.336 900.558 597.56 901.518 597C902.494 596.424 903.598 596.136 904.83 596.136C906.046 596.136 907.134 596.424 908.094 597C909.07 597.56 909.838 598.336 910.398 599.328C910.958 600.304 911.238 601.424 911.238 602.688C911.238 603.952 910.958 605.08 910.398 606.072C909.838 607.048 909.07 607.824 908.094 608.4C907.134 608.96 906.046 609.24 904.83 609.24ZM904.83 606.984C905.582 606.984 906.254 606.8 906.846 606.432C907.438 606.048 907.902 605.536 908.238 604.896C908.574 604.24 908.734 603.504 908.718 602.688C908.734 601.856 908.574 601.12 908.238 600.48C907.902 599.824 907.438 599.312 906.846 598.944C906.254 598.576 905.582 598.392 904.83 598.392C904.078 598.392 903.398 598.584 902.79 598.968C902.198 599.336 901.734 599.848 901.398 600.504C901.062 601.144 900.902 601.872 900.918 602.688C900.902 603.504 901.062 604.24 901.398 604.896C901.734 605.536 902.198 606.048 902.79 606.432C903.398 606.8 904.078 606.984 904.83 606.984ZM913.931 609V596.4H916.427V600.36L916.187 599.4C916.363 598.792 916.659 598.24 917.075 597.744C917.507 597.248 917.995 596.856 918.539 596.568C919.099 596.28 919.675 596.136 920.267 596.136C920.539 596.136 920.795 596.16 921.035 596.208C921.291 596.256 921.491 596.312 921.635 596.376L920.987 599.064C920.795 598.984 920.579 598.92 920.339 598.872C920.115 598.808 919.891 598.776 919.667 598.776C919.235 598.776 918.819 598.864 918.419 599.04C918.035 599.2 917.691 599.432 917.387 599.736C917.099 600.024 916.867 600.368 916.691 600.768C916.515 601.152 916.427 601.576 916.427 602.04V609H913.931ZM923.563 609V596.4H926.059V599.088L925.603 599.376C925.731 598.96 925.931 598.56 926.203 598.176C926.491 597.792 926.835 597.456 927.235 597.168C927.651 596.864 928.091 596.624 928.555 596.448C929.035 596.272 929.523 596.184 930.019 596.184C930.739 596.184 931.371 596.304 931.915 596.544C932.459 596.784 932.907 597.144 933.259 597.624C933.611 598.104 933.867 598.704 934.027 599.424L933.643 599.328L933.811 598.92C933.987 598.552 934.227 598.208 934.531 597.888C934.851 597.552 935.211 597.256 935.611 597C936.011 596.744 936.435 596.544 936.883 596.4C937.331 596.256 937.771 596.184 938.203 596.184C939.147 596.184 939.923 596.376 940.531 596.76C941.155 597.144 941.619 597.728 941.923 598.512C942.243 599.296 942.403 600.272 942.403 601.44V609H939.907V601.584C939.907 600.864 939.811 600.28 939.619 599.832C939.443 599.368 939.171 599.024 938.803 598.8C938.435 598.576 937.963 598.464 937.387 598.464C936.939 598.464 936.515 598.544 936.115 598.704C935.731 598.848 935.395 599.056 935.107 599.328C934.819 599.6 934.595 599.92 934.435 600.288C934.275 600.64 934.195 601.032 934.195 601.464V609H931.699V601.536C931.699 600.88 931.603 600.328 931.411 599.88C931.219 599.416 930.939 599.064 930.571 598.824C930.203 598.584 929.755 598.464 929.227 598.464C928.779 598.464 928.363 598.544 927.979 598.704C927.595 598.848 927.259 599.056 926.971 599.328C926.683 599.584 926.459 599.896 926.299 600.264C926.139 600.616 926.059 601 926.059 601.416V609H923.563ZM946.12 609V596.4H948.592V609H946.12ZM947.32 593.616C946.792 593.616 946.384 593.48 946.096 593.208C945.808 592.936 945.664 592.552 945.664 592.056C945.664 591.592 945.808 591.216 946.096 590.928C946.4 590.64 946.808 590.496 947.32 590.496C947.848 590.496 948.256 590.632 948.544 590.904C948.832 591.176 948.976 591.56 948.976 592.056C948.976 592.52 948.824 592.896 948.52 593.184C948.232 593.472 947.832 593.616 947.32 593.616ZM952.392 609V596.4H954.864V598.992L954.432 599.28C954.592 598.72 954.904 598.208 955.368 597.744C955.832 597.264 956.384 596.88 957.024 596.592C957.664 596.288 958.32 596.136 958.992 596.136C959.952 596.136 960.752 596.328 961.392 596.712C962.032 597.08 962.512 597.648 962.832 598.416C963.152 599.184 963.312 600.152 963.312 601.32V609H960.84V601.488C960.84 600.768 960.744 600.176 960.552 599.712C960.36 599.232 960.064 598.888 959.664 598.68C959.264 598.456 958.768 598.36 958.176 598.392C957.696 598.392 957.256 598.472 956.856 598.632C956.456 598.776 956.104 598.984 955.8 599.256C955.512 599.528 955.28 599.848 955.104 600.216C954.944 600.568 954.864 600.952 954.864 601.368V609H953.64C953.432 609 953.224 609 953.016 609C952.808 609 952.6 609 952.392 609ZM972.306 614.52C971.41 614.52 970.514 614.376 969.618 614.088C968.738 613.816 968.026 613.456 967.482 613.008L968.394 611.088C968.714 611.328 969.09 611.536 969.522 611.712C969.954 611.904 970.41 612.048 970.89 612.144C971.37 612.256 971.842 612.312 972.306 612.312C973.186 612.312 973.922 612.168 974.514 611.88C975.106 611.592 975.554 611.168 975.858 610.608C976.162 610.048 976.314 609.352 976.314 608.52V606.096L976.578 606.264C976.498 606.76 976.234 607.24 975.786 607.704C975.354 608.152 974.81 608.52 974.154 608.808C973.498 609.096 972.826 609.24 972.138 609.24C970.938 609.24 969.866 608.96 968.922 608.4C967.994 607.824 967.258 607.048 966.714 606.072C966.17 605.08 965.898 603.952 965.898 602.688C965.898 601.424 966.162 600.304 966.69 599.328C967.234 598.336 967.97 597.56 968.898 597C969.842 596.424 970.898 596.136 972.066 596.136C972.546 596.136 973.01 596.2 973.458 596.328C973.906 596.44 974.322 596.608 974.706 596.832C975.09 597.04 975.434 597.272 975.738 597.528C976.042 597.784 976.29 598.056 976.482 598.344C976.674 598.632 976.794 598.904 976.842 599.16L976.314 599.352V596.4H978.786V608.232C978.786 609.24 978.634 610.128 978.33 610.896C978.042 611.68 977.618 612.336 977.057 612.864C976.498 613.408 975.818 613.816 975.018 614.088C974.218 614.376 973.314 614.52 972.306 614.52ZM972.402 606.96C973.186 606.96 973.882 606.776 974.49 606.408C975.098 606.04 975.57 605.536 975.906 604.896C976.242 604.256 976.41 603.52 976.41 602.688C976.41 601.856 976.234 601.12 975.882 600.48C975.546 599.824 975.074 599.312 974.466 598.944C973.874 598.576 973.186 598.392 972.402 598.392C971.634 598.392 970.946 598.584 970.338 598.968C969.746 599.336 969.274 599.848 968.922 600.504C968.586 601.144 968.418 601.872 968.418 602.688C968.418 603.504 968.586 604.24 968.922 604.896C969.274 605.536 969.746 606.04 970.338 606.408C970.946 606.776 971.634 606.96 972.402 606.96ZM989.386 609V596.4H991.858V609H989.386ZM990.586 593.616C990.058 593.616 989.65 593.48 989.362 593.208C989.074 592.936 988.93 592.552 988.93 592.056C988.93 591.592 989.074 591.216 989.362 590.928C989.666 590.64 990.074 590.496 990.586 590.496C991.114 590.496 991.522 590.632 991.81 590.904C992.098 591.176 992.242 591.56 992.242 592.056C992.242 592.52 992.09 592.896 991.786 593.184C991.498 593.472 991.098 593.616 990.586 593.616ZM1000.91 609.24C999.762 609.24 998.73 608.96 997.818 608.4C996.922 607.824 996.21 607.048 995.682 606.072C995.154 605.08 994.89 603.952 994.89 602.688C994.89 601.424 995.146 600.304 995.658 599.328C996.186 598.336 996.898 597.56 997.794 597C998.69 596.424 999.706 596.136 1000.84 596.136C1001.47 596.136 1002.07 596.24 1002.64 596.448C1003.23 596.64 1003.76 596.912 1004.23 597.264C1004.69 597.6 1005.05 597.976 1005.31 598.392C1005.58 598.792 1005.71 599.2 1005.71 599.616L1004.99 599.664V591.24H1007.47V609H1004.99V606H1005.47C1005.47 606.384 1005.35 606.768 1005.09 607.152C1004.83 607.52 1004.49 607.864 1004.06 608.184C1003.64 608.504 1003.15 608.76 1002.59 608.952C1002.05 609.144 1001.49 609.24 1000.91 609.24ZM1001.25 607.104C1002 607.104 1002.67 606.912 1003.24 606.528C1003.82 606.144 1004.27 605.624 1004.59 604.968C1004.92 604.296 1005.09 603.536 1005.09 602.688C1005.09 601.84 1004.92 601.088 1004.59 600.432C1004.27 599.76 1003.82 599.232 1003.24 598.848C1002.67 598.464 1002 598.272 1001.25 598.272C1000.5 598.272 999.834 598.464 999.258 598.848C998.682 599.232 998.226 599.76 997.89 600.432C997.57 601.088 997.41 601.84 997.41 602.688C997.41 603.536 997.57 604.296 997.89 604.968C998.226 605.624 998.682 606.144 999.258 606.528C999.834 606.912 1000.5 607.104 1001.25 607.104ZM1016.75 609.24C1015.45 609.24 1014.3 608.968 1013.29 608.424C1012.3 607.864 1011.52 607.104 1010.94 606.144C1010.38 605.184 1010.1 604.08 1010.1 602.832C1010.1 601.84 1010.26 600.936 1010.58 600.12C1010.9 599.304 1011.34 598.6 1011.9 598.008C1012.48 597.4 1013.16 596.936 1013.94 596.616C1014.74 596.28 1015.6 596.112 1016.53 596.112C1017.35 596.112 1018.11 596.272 1018.81 596.592C1019.52 596.896 1020.12 597.32 1020.64 597.864C1021.16 598.408 1021.56 599.056 1021.84 599.808C1022.12 600.544 1022.26 601.352 1022.24 602.232L1022.22 603.288H1011.92L1011.37 601.32H1020.08L1019.72 601.728V601.152C1019.68 600.624 1019.5 600.152 1019.2 599.736C1018.89 599.32 1018.51 598.992 1018.04 598.752C1017.58 598.512 1017.08 598.392 1016.53 598.392C1015.67 598.392 1014.94 598.56 1014.35 598.896C1013.76 599.216 1013.31 599.696 1013 600.336C1012.7 600.96 1012.55 601.736 1012.55 602.664C1012.55 603.544 1012.73 604.312 1013.1 604.968C1013.47 605.608 1013.99 606.104 1014.66 606.456C1015.33 606.808 1016.11 606.984 1016.99 606.984C1017.61 606.984 1018.19 606.88 1018.72 606.672C1019.26 606.464 1019.84 606.088 1020.47 605.544L1021.72 607.296C1021.33 607.68 1020.86 608.016 1020.3 608.304C1019.76 608.592 1019.17 608.824 1018.55 609C1017.94 609.16 1017.34 609.24 1016.75 609.24ZM1029.78 609.24C1028.74 609.24 1027.79 608.952 1026.92 608.376C1026.08 607.8 1025.4 607.016 1024.88 606.024C1024.37 605.032 1024.12 603.912 1024.12 602.664C1024.12 601.4 1024.37 600.28 1024.88 599.304C1025.41 598.312 1026.12 597.536 1027 596.976C1027.89 596.416 1028.89 596.136 1030 596.136C1030.65 596.136 1031.25 596.232 1031.8 596.424C1032.34 596.616 1032.81 596.888 1033.21 597.24C1033.63 597.576 1033.96 597.968 1034.22 598.416C1034.49 598.864 1034.66 599.344 1034.72 599.856L1034.17 599.664V596.4H1036.67V609H1034.17V606L1034.75 605.832C1034.65 606.264 1034.45 606.688 1034.15 607.104C1033.86 607.504 1033.48 607.864 1033.02 608.184C1032.57 608.504 1032.07 608.76 1031.51 608.952C1030.96 609.144 1030.39 609.24 1029.78 609.24ZM1030.43 606.96C1031.18 606.96 1031.84 606.776 1032.42 606.408C1033 606.04 1033.44 605.536 1033.76 604.896C1034.1 604.24 1034.27 603.496 1034.27 602.664C1034.27 601.848 1034.1 601.12 1033.76 600.48C1033.44 599.84 1033 599.336 1032.42 598.968C1031.84 598.6 1031.18 598.416 1030.43 598.416C1029.69 598.416 1029.04 598.6 1028.46 598.968C1027.9 599.336 1027.45 599.84 1027.12 600.48C1026.8 601.12 1026.64 601.848 1026.64 602.664C1026.64 603.496 1026.8 604.24 1027.12 604.896C1027.45 605.536 1027.9 606.04 1028.46 606.408C1029.04 606.776 1029.69 606.96 1030.43 606.96ZM1044.32 609.24C1043.26 609.24 1042.31 609.056 1041.46 608.688C1040.61 608.32 1039.91 607.776 1039.35 607.056L1041.03 605.616C1041.51 606.176 1042.03 606.584 1042.59 606.84C1043.17 607.08 1043.81 607.2 1044.53 607.2C1044.82 607.2 1045.09 607.168 1045.33 607.104C1045.58 607.024 1045.8 606.912 1045.97 606.768C1046.17 606.624 1046.31 606.456 1046.41 606.264C1046.5 606.056 1046.55 605.832 1046.55 605.592C1046.55 605.176 1046.4 604.84 1046.09 604.584C1045.93 604.472 1045.68 604.352 1045.33 604.224C1044.99 604.08 1044.55 603.936 1044.01 603.792C1043.08 603.552 1042.32 603.28 1041.73 602.976C1041.13 602.672 1040.68 602.328 1040.36 601.944C1040.12 601.64 1039.94 601.312 1039.83 600.96C1039.72 600.592 1039.66 600.192 1039.66 599.76C1039.66 599.232 1039.77 598.752 1040 598.32C1040.24 597.872 1040.56 597.488 1040.96 597.168C1041.37 596.832 1041.85 596.576 1042.4 596.4C1042.96 596.224 1043.55 596.136 1044.17 596.136C1044.77 596.136 1045.35 596.216 1045.93 596.376C1046.52 596.536 1047.06 596.768 1047.56 597.072C1048.05 597.376 1048.47 597.736 1048.81 598.152L1047.39 599.712C1047.09 599.408 1046.75 599.144 1046.38 598.92C1046.03 598.68 1045.67 598.496 1045.3 598.368C1044.93 598.24 1044.6 598.176 1044.29 598.176C1043.96 598.176 1043.65 598.208 1043.38 598.272C1043.11 598.336 1042.88 598.432 1042.69 598.56C1042.51 598.688 1042.37 598.848 1042.28 599.04C1042.18 599.232 1042.13 599.448 1042.13 599.688C1042.15 599.896 1042.2 600.096 1042.28 600.288C1042.37 600.464 1042.5 600.616 1042.66 600.744C1042.84 600.872 1043.1 601.008 1043.45 601.152C1043.81 601.296 1044.25 601.432 1044.8 601.56C1045.6 601.768 1046.25 602 1046.77 602.256C1047.29 602.496 1047.71 602.776 1048.01 603.096C1048.33 603.4 1048.56 603.752 1048.69 604.152C1048.81 604.552 1048.88 605 1048.88 605.496C1048.88 606.216 1048.67 606.864 1048.25 607.44C1047.85 608 1047.31 608.44 1046.62 608.76C1045.93 609.08 1045.17 609.24 1044.32 609.24ZM1058.74 609V596.4H1061.21V609H1058.74ZM1059.94 593.616C1059.41 593.616 1059 593.48 1058.71 593.208C1058.43 592.936 1058.28 592.552 1058.28 592.056C1058.28 591.592 1058.43 591.216 1058.71 590.928C1059.02 590.64 1059.43 590.496 1059.94 590.496C1060.47 590.496 1060.87 590.632 1061.16 590.904C1061.45 591.176 1061.59 591.56 1061.59 592.056C1061.59 592.52 1061.44 592.896 1061.14 593.184C1060.85 593.472 1060.45 593.616 1059.94 593.616ZM1065.01 609V596.4H1067.48V598.992L1067.05 599.28C1067.21 598.72 1067.52 598.208 1067.99 597.744C1068.45 597.264 1069 596.88 1069.64 596.592C1070.28 596.288 1070.94 596.136 1071.61 596.136C1072.57 596.136 1073.37 596.328 1074.01 596.712C1074.65 597.08 1075.13 597.648 1075.45 598.416C1075.77 599.184 1075.93 600.152 1075.93 601.32V609H1073.46V601.488C1073.46 600.768 1073.36 600.176 1073.17 599.712C1072.98 599.232 1072.68 598.888 1072.28 598.68C1071.88 598.456 1071.39 598.36 1070.79 598.392C1070.31 598.392 1069.87 598.472 1069.47 598.632C1069.07 598.776 1068.72 598.984 1068.42 599.256C1068.13 599.528 1067.9 599.848 1067.72 600.216C1067.56 600.568 1067.48 600.952 1067.48 601.368V609H1066.26C1066.05 609 1065.84 609 1065.63 609C1065.43 609 1065.22 609 1065.01 609ZM1080.84 609V593.184H1083.31V609H1080.84ZM1078.23 598.8V596.4H1086.24V598.8H1078.23ZM1094.04 609.24C1092.81 609.24 1091.7 608.96 1090.73 608.4C1089.77 607.824 1089.01 607.048 1088.45 606.072C1087.89 605.08 1087.61 603.952 1087.61 602.688C1087.61 601.424 1087.89 600.304 1088.45 599.328C1089.01 598.336 1089.77 597.56 1090.73 597C1091.7 596.424 1092.81 596.136 1094.04 596.136C1095.26 596.136 1096.34 596.424 1097.3 597C1098.28 597.56 1099.05 598.336 1099.61 599.328C1100.17 600.304 1100.45 601.424 1100.45 602.688C1100.45 603.952 1100.17 605.08 1099.61 606.072C1099.05 607.048 1098.28 607.824 1097.3 608.4C1096.34 608.96 1095.26 609.24 1094.04 609.24ZM1094.04 606.984C1094.79 606.984 1095.46 606.8 1096.06 606.432C1096.65 606.048 1097.11 605.536 1097.45 604.896C1097.78 604.24 1097.94 603.504 1097.93 602.688C1097.94 601.856 1097.78 601.12 1097.45 600.48C1097.11 599.824 1096.65 599.312 1096.06 598.944C1095.46 598.576 1094.79 598.392 1094.04 598.392C1093.29 598.392 1092.61 598.584 1092 598.968C1091.41 599.336 1090.94 599.848 1090.61 600.504C1090.27 601.144 1090.11 601.872 1090.13 602.688C1090.11 603.504 1090.27 604.24 1090.61 604.896C1090.94 605.536 1091.41 606.048 1092 606.432C1092.61 606.8 1093.29 606.984 1094.04 606.984ZM1110.28 609V596.4H1112.75V609H1110.28ZM1111.48 593.616C1110.95 593.616 1110.54 593.48 1110.25 593.208C1109.96 592.936 1109.82 592.552 1109.82 592.056C1109.82 591.592 1109.96 591.216 1110.25 590.928C1110.56 590.64 1110.96 590.496 1111.48 590.496C1112 590.496 1112.41 590.632 1112.7 590.904C1112.99 591.176 1113.13 591.56 1113.13 592.056C1113.13 592.52 1112.98 592.896 1112.68 593.184C1112.39 593.472 1111.99 593.616 1111.48 593.616ZM1116.55 609V596.4H1119.02V598.992L1118.59 599.28C1118.75 598.72 1119.06 598.208 1119.52 597.744C1119.99 597.264 1120.54 596.88 1121.18 596.592C1121.82 596.288 1122.48 596.136 1123.15 596.136C1124.11 596.136 1124.91 596.328 1125.55 596.712C1126.19 597.08 1126.67 597.648 1126.99 598.416C1127.31 599.184 1127.47 600.152 1127.47 601.32V609H1125V601.488C1125 600.768 1124.9 600.176 1124.71 599.712C1124.52 599.232 1124.22 598.888 1123.82 598.68C1123.42 598.456 1122.92 598.36 1122.33 598.392C1121.85 598.392 1121.41 598.472 1121.01 598.632C1120.61 598.776 1120.26 598.984 1119.96 599.256C1119.67 599.528 1119.44 599.848 1119.26 600.216C1119.1 600.568 1119.02 600.952 1119.02 601.368V609H1117.8C1117.59 609 1117.38 609 1117.17 609C1116.96 609 1116.76 609 1116.55 609ZM1132.38 609V593.184H1134.85V609H1132.38ZM1129.77 598.8V596.4H1137.78V598.8H1129.77ZM1145.8 609.24C1144.5 609.24 1143.35 608.968 1142.34 608.424C1141.35 607.864 1140.56 607.104 1139.99 606.144C1139.43 605.184 1139.15 604.08 1139.15 602.832C1139.15 601.84 1139.31 600.936 1139.63 600.12C1139.95 599.304 1140.39 598.6 1140.95 598.008C1141.52 597.4 1142.2 596.936 1142.99 596.616C1143.79 596.28 1144.65 596.112 1145.58 596.112C1146.4 596.112 1147.16 596.272 1147.86 596.592C1148.56 596.896 1149.17 597.32 1149.68 597.864C1150.21 598.408 1150.61 599.056 1150.88 599.808C1151.17 600.544 1151.31 601.352 1151.29 602.232L1151.27 603.288H1140.97L1140.42 601.32H1149.13L1148.77 601.728V601.152C1148.72 600.624 1148.55 600.152 1148.24 599.736C1147.94 599.32 1147.56 598.992 1147.09 598.752C1146.63 598.512 1146.12 598.392 1145.58 598.392C1144.72 598.392 1143.99 598.56 1143.4 598.896C1142.8 599.216 1142.36 599.696 1142.05 600.336C1141.75 600.96 1141.6 601.736 1141.6 602.664C1141.6 603.544 1141.78 604.312 1142.15 604.968C1142.52 605.608 1143.04 606.104 1143.71 606.456C1144.38 606.808 1145.16 606.984 1146.04 606.984C1146.66 606.984 1147.24 606.88 1147.76 606.672C1148.31 606.464 1148.89 606.088 1149.52 605.544L1150.76 607.296C1150.38 607.68 1149.91 608.016 1149.35 608.304C1148.8 608.592 1148.22 608.824 1147.6 609C1146.99 609.16 1146.39 609.24 1145.8 609.24ZM1154.03 609V591.24H1156.5V609H1154.03ZM1160.41 609V596.4H1162.88V609H1160.41ZM1161.61 593.616C1161.08 593.616 1160.67 593.48 1160.39 593.208C1160.1 592.936 1159.95 592.552 1159.95 592.056C1159.95 591.592 1160.1 591.216 1160.39 590.928C1160.69 590.64 1161.1 590.496 1161.61 590.496C1162.14 590.496 1162.55 590.632 1162.83 590.904C1163.12 591.176 1163.27 591.56 1163.27 592.056C1163.27 592.52 1163.11 592.896 1162.81 593.184C1162.52 593.472 1162.12 593.616 1161.61 593.616ZM1172.32 614.52C1171.43 614.52 1170.53 614.376 1169.63 614.088C1168.75 613.816 1168.04 613.456 1167.5 613.008L1168.41 611.088C1168.73 611.328 1169.11 611.536 1169.54 611.712C1169.97 611.904 1170.43 612.048 1170.91 612.144C1171.39 612.256 1171.86 612.312 1172.32 612.312C1173.2 612.312 1173.94 612.168 1174.53 611.88C1175.12 611.592 1175.57 611.168 1175.87 610.608C1176.18 610.048 1176.33 609.352 1176.33 608.52V606.096L1176.59 606.264C1176.51 606.76 1176.25 607.24 1175.8 607.704C1175.37 608.152 1174.83 608.52 1174.17 608.808C1173.51 609.096 1172.84 609.24 1172.15 609.24C1170.95 609.24 1169.88 608.96 1168.94 608.4C1168.01 607.824 1167.27 607.048 1166.73 606.072C1166.19 605.08 1165.91 603.952 1165.91 602.688C1165.91 601.424 1166.18 600.304 1166.71 599.328C1167.25 598.336 1167.99 597.56 1168.91 597C1169.86 596.424 1170.91 596.136 1172.08 596.136C1172.56 596.136 1173.03 596.2 1173.47 596.328C1173.92 596.44 1174.34 596.608 1174.72 596.832C1175.11 597.04 1175.45 597.272 1175.75 597.528C1176.06 597.784 1176.31 598.056 1176.5 598.344C1176.69 598.632 1176.81 598.904 1176.86 599.16L1176.33 599.352V596.4H1178.8V608.232C1178.8 609.24 1178.65 610.128 1178.35 610.896C1178.06 611.68 1177.63 612.336 1177.07 612.864C1176.51 613.408 1175.83 613.816 1175.03 614.088C1174.23 614.376 1173.33 614.52 1172.32 614.52ZM1172.42 606.96C1173.2 606.96 1173.9 606.776 1174.51 606.408C1175.11 606.04 1175.59 605.536 1175.92 604.896C1176.26 604.256 1176.43 603.52 1176.43 602.688C1176.43 601.856 1176.25 601.12 1175.9 600.48C1175.56 599.824 1175.09 599.312 1174.48 598.944C1173.89 598.576 1173.2 598.392 1172.42 598.392C1171.65 598.392 1170.96 598.584 1170.35 598.968C1169.76 599.336 1169.29 599.848 1168.94 600.504C1168.6 601.144 1168.43 601.872 1168.43 602.688C1168.43 603.504 1168.6 604.24 1168.94 604.896C1169.29 605.536 1169.76 606.04 1170.35 606.408C1170.96 606.776 1171.65 606.96 1172.42 606.96ZM1188.15 609.24C1186.85 609.24 1185.7 608.968 1184.69 608.424C1183.7 607.864 1182.92 607.104 1182.34 606.144C1181.78 605.184 1181.5 604.08 1181.5 602.832C1181.5 601.84 1181.66 600.936 1181.98 600.12C1182.3 599.304 1182.74 598.6 1183.3 598.008C1183.88 597.4 1184.56 596.936 1185.34 596.616C1186.14 596.28 1187 596.112 1187.93 596.112C1188.75 596.112 1189.51 596.272 1190.21 596.592C1190.92 596.896 1191.52 597.32 1192.04 597.864C1192.56 598.408 1192.96 599.056 1193.24 599.808C1193.52 600.544 1193.66 601.352 1193.64 602.232L1193.62 603.288H1183.32L1182.77 601.32H1191.48L1191.12 601.728V601.152C1191.08 600.624 1190.9 600.152 1190.6 599.736C1190.29 599.32 1189.91 598.992 1189.44 598.752C1188.98 598.512 1188.48 598.392 1187.93 598.392C1187.07 598.392 1186.34 598.56 1185.75 598.896C1185.16 599.216 1184.71 599.696 1184.4 600.336C1184.1 600.96 1183.95 601.736 1183.95 602.664C1183.95 603.544 1184.13 604.312 1184.5 604.968C1184.87 605.608 1185.39 606.104 1186.06 606.456C1186.73 606.808 1187.51 606.984 1188.39 606.984C1189.01 606.984 1189.59 606.88 1190.12 606.672C1190.66 606.464 1191.24 606.088 1191.87 605.544L1193.12 607.296C1192.73 607.68 1192.26 608.016 1191.7 608.304C1191.16 608.592 1190.57 608.824 1189.95 609C1189.34 609.16 1188.74 609.24 1188.15 609.24ZM1196.33 609V596.4H1198.8V598.992L1198.37 599.28C1198.53 598.72 1198.84 598.208 1199.31 597.744C1199.77 597.264 1200.32 596.88 1200.96 596.592C1201.6 596.288 1202.26 596.136 1202.93 596.136C1203.89 596.136 1204.69 596.328 1205.33 596.712C1205.97 597.08 1206.45 597.648 1206.77 598.416C1207.09 599.184 1207.25 600.152 1207.25 601.32V609H1204.78V601.488C1204.78 600.768 1204.68 600.176 1204.49 599.712C1204.3 599.232 1204 598.888 1203.6 598.68C1203.2 598.456 1202.71 598.36 1202.11 598.392C1201.63 598.392 1201.19 598.472 1200.79 598.632C1200.39 598.776 1200.04 598.984 1199.74 599.256C1199.45 599.528 1199.22 599.848 1199.04 600.216C1198.88 600.568 1198.8 600.952 1198.8 601.368V609H1197.58C1197.37 609 1197.16 609 1196.95 609C1196.75 609 1196.54 609 1196.33 609ZM1212.16 609V593.184H1214.64V609H1212.16ZM1209.55 598.8V596.4H1217.56V598.8H1209.55ZM1230.74 609.24C1229.68 609.24 1228.73 609.056 1227.88 608.688C1227.04 608.32 1226.33 607.776 1225.77 607.056L1227.45 605.616C1227.93 606.176 1228.45 606.584 1229.01 606.84C1229.59 607.08 1230.24 607.2 1230.96 607.2C1231.24 607.2 1231.51 607.168 1231.75 607.104C1232 607.024 1232.22 606.912 1232.4 606.768C1232.59 606.624 1232.73 606.456 1232.83 606.264C1232.92 606.056 1232.97 605.832 1232.97 605.592C1232.97 605.176 1232.82 604.84 1232.52 604.584C1232.36 604.472 1232.1 604.352 1231.75 604.224C1231.41 604.08 1230.97 603.936 1230.43 603.792C1229.5 603.552 1228.74 603.28 1228.15 602.976C1227.56 602.672 1227.1 602.328 1226.78 601.944C1226.54 601.64 1226.36 601.312 1226.25 600.96C1226.14 600.592 1226.08 600.192 1226.08 599.76C1226.08 599.232 1226.2 598.752 1226.42 598.32C1226.66 597.872 1226.98 597.488 1227.38 597.168C1227.8 596.832 1228.28 596.576 1228.82 596.4C1229.38 596.224 1229.97 596.136 1230.6 596.136C1231.19 596.136 1231.77 596.216 1232.35 596.376C1232.94 596.536 1233.48 596.768 1233.98 597.072C1234.48 597.376 1234.89 597.736 1235.23 598.152L1233.81 599.712C1233.51 599.408 1233.17 599.144 1232.8 598.92C1232.45 598.68 1232.09 598.496 1231.72 598.368C1231.36 598.24 1231.02 598.176 1230.72 598.176C1230.38 598.176 1230.08 598.208 1229.8 598.272C1229.53 598.336 1229.3 598.432 1229.11 598.56C1228.93 598.688 1228.8 598.848 1228.7 599.04C1228.6 599.232 1228.56 599.448 1228.56 599.688C1228.57 599.896 1228.62 600.096 1228.7 600.288C1228.8 600.464 1228.92 600.616 1229.08 600.744C1229.26 600.872 1229.52 601.008 1229.88 601.152C1230.23 601.296 1230.68 601.432 1231.22 601.56C1232.02 601.768 1232.68 602 1233.19 602.256C1233.72 602.496 1234.13 602.776 1234.44 603.096C1234.76 603.4 1234.98 603.752 1235.11 604.152C1235.24 604.552 1235.3 605 1235.3 605.496C1235.3 606.216 1235.09 606.864 1234.68 607.44C1234.28 608 1233.73 608.44 1233.04 608.76C1232.36 609.08 1231.59 609.24 1230.74 609.24ZM1243.69 609.24C1242.46 609.24 1241.35 608.96 1240.38 608.4C1239.42 607.824 1238.66 607.048 1238.1 606.072C1237.54 605.08 1237.26 603.952 1237.26 602.688C1237.26 601.424 1237.54 600.304 1238.1 599.328C1238.66 598.336 1239.42 597.56 1240.38 597C1241.35 596.424 1242.46 596.136 1243.69 596.136C1244.9 596.136 1245.99 596.424 1246.95 597C1247.93 597.56 1248.7 598.336 1249.26 599.328C1249.82 600.304 1250.1 601.424 1250.1 602.688C1250.1 603.952 1249.82 605.08 1249.26 606.072C1248.7 607.048 1247.93 607.824 1246.95 608.4C1245.99 608.96 1244.9 609.24 1243.69 609.24ZM1243.69 606.984C1244.44 606.984 1245.11 606.8 1245.7 606.432C1246.3 606.048 1246.76 605.536 1247.1 604.896C1247.43 604.24 1247.59 603.504 1247.58 602.688C1247.59 601.856 1247.43 601.12 1247.1 600.48C1246.76 599.824 1246.3 599.312 1245.7 598.944C1245.11 598.576 1244.44 598.392 1243.69 598.392C1242.94 598.392 1242.26 598.584 1241.65 598.968C1241.06 599.336 1240.59 599.848 1240.26 600.504C1239.92 601.144 1239.76 601.872 1239.78 602.688C1239.76 603.504 1239.92 604.24 1240.26 604.896C1240.59 605.536 1241.06 606.048 1241.65 606.432C1242.26 606.8 1242.94 606.984 1243.69 606.984ZM1252.84 609V591.24H1255.31V609H1252.84ZM1263.11 609.24C1262.22 609.24 1261.43 609.032 1260.76 608.616C1260.1 608.2 1259.59 607.616 1259.22 606.864C1258.87 606.112 1258.7 605.216 1258.7 604.176V596.4H1261.17V603.504C1261.17 604.24 1261.28 604.88 1261.5 605.424C1261.74 605.952 1262.08 606.36 1262.51 606.648C1262.96 606.936 1263.5 607.08 1264.12 607.08C1264.58 607.08 1265.01 607.008 1265.39 606.864C1265.78 606.704 1266.1 606.488 1266.38 606.216C1266.66 605.944 1266.89 605.616 1267.05 605.232C1267.21 604.848 1267.29 604.432 1267.29 603.984V596.4H1269.76V609H1267.29V606.36L1267.72 606.072C1267.53 606.664 1267.2 607.2 1266.74 607.68C1266.29 608.16 1265.75 608.544 1265.13 608.832C1264.5 609.104 1263.83 609.24 1263.11 609.24ZM1274.79 609V593.184H1277.26V609H1274.79ZM1272.17 598.8V596.4H1280.19V598.8H1272.17ZM1282.85 609V596.4H1285.32V609H1282.85ZM1284.05 593.616C1283.52 593.616 1283.11 593.48 1282.82 593.208C1282.53 592.936 1282.39 592.552 1282.39 592.056C1282.39 591.592 1282.53 591.216 1282.82 590.928C1283.13 590.64 1283.53 590.496 1284.05 590.496C1284.57 590.496 1284.98 590.632 1285.27 590.904C1285.56 591.176 1285.7 591.56 1285.7 592.056C1285.7 592.52 1285.55 592.896 1285.25 593.184C1284.96 593.472 1284.56 593.616 1284.05 593.616ZM1294.78 609.24C1293.55 609.24 1292.45 608.96 1291.47 608.4C1290.51 607.824 1289.75 607.048 1289.19 606.072C1288.63 605.08 1288.35 603.952 1288.35 602.688C1288.35 601.424 1288.63 600.304 1289.19 599.328C1289.75 598.336 1290.51 597.56 1291.47 597C1292.45 596.424 1293.55 596.136 1294.78 596.136C1296 596.136 1297.09 596.424 1298.05 597C1299.02 597.56 1299.79 598.336 1300.35 599.328C1300.91 600.304 1301.19 601.424 1301.19 602.688C1301.19 603.952 1300.91 605.08 1300.35 606.072C1299.79 607.048 1299.02 607.824 1298.05 608.4C1297.09 608.96 1296 609.24 1294.78 609.24ZM1294.78 606.984C1295.53 606.984 1296.21 606.8 1296.8 606.432C1297.39 606.048 1297.85 605.536 1298.19 604.896C1298.53 604.24 1298.69 603.504 1298.67 602.688C1298.69 601.856 1298.53 601.12 1298.19 600.48C1297.85 599.824 1297.39 599.312 1296.8 598.944C1296.21 598.576 1295.53 598.392 1294.78 598.392C1294.03 598.392 1293.35 598.584 1292.74 598.968C1292.15 599.336 1291.69 599.848 1291.35 600.504C1291.01 601.144 1290.85 601.872 1290.87 602.688C1290.85 603.504 1291.01 604.24 1291.35 604.896C1291.69 605.536 1292.15 606.048 1292.74 606.432C1293.35 606.8 1294.03 606.984 1294.78 606.984ZM1303.88 609V596.4H1306.36V598.992L1305.92 599.28C1306.08 598.72 1306.4 598.208 1306.86 597.744C1307.32 597.264 1307.88 596.88 1308.52 596.592C1309.16 596.288 1309.81 596.136 1310.48 596.136C1311.44 596.136 1312.24 596.328 1312.88 596.712C1313.52 597.08 1314 597.648 1314.32 598.416C1314.64 599.184 1314.8 600.152 1314.8 601.32V609H1312.33V601.488C1312.33 600.768 1312.24 600.176 1312.04 599.712C1311.85 599.232 1311.56 598.888 1311.16 598.68C1310.76 598.456 1310.26 598.36 1309.67 598.392C1309.19 598.392 1308.75 598.472 1308.35 598.632C1307.95 598.776 1307.6 598.984 1307.29 599.256C1307 599.528 1306.77 599.848 1306.6 600.216C1306.44 600.568 1306.36 600.952 1306.36 601.368V609H1305.13C1304.92 609 1304.72 609 1304.51 609C1304.3 609 1304.09 609 1303.88 609ZM1322.36 609.24C1321.3 609.24 1320.35 609.056 1319.5 608.688C1318.65 608.32 1317.95 607.776 1317.39 607.056L1319.07 605.616C1319.55 606.176 1320.07 606.584 1320.63 606.84C1321.21 607.08 1321.85 607.2 1322.57 607.2C1322.86 607.2 1323.13 607.168 1323.37 607.104C1323.62 607.024 1323.84 606.912 1324.01 606.768C1324.21 606.624 1324.35 606.456 1324.45 606.264C1324.54 606.056 1324.59 605.832 1324.59 605.592C1324.59 605.176 1324.44 604.84 1324.13 604.584C1323.97 604.472 1323.72 604.352 1323.37 604.224C1323.03 604.08 1322.59 603.936 1322.05 603.792C1321.12 603.552 1320.36 603.28 1319.77 602.976C1319.17 602.672 1318.72 602.328 1318.4 601.944C1318.16 601.64 1317.98 601.312 1317.87 600.96C1317.76 600.592 1317.7 600.192 1317.7 599.76C1317.7 599.232 1317.81 598.752 1318.04 598.32C1318.28 597.872 1318.6 597.488 1319 597.168C1319.41 596.832 1319.89 596.576 1320.44 596.4C1321 596.224 1321.59 596.136 1322.21 596.136C1322.81 596.136 1323.39 596.216 1323.97 596.376C1324.56 596.536 1325.1 596.768 1325.6 597.072C1326.09 597.376 1326.51 597.736 1326.85 598.152L1325.43 599.712C1325.13 599.408 1324.79 599.144 1324.42 598.92C1324.07 598.68 1323.71 598.496 1323.34 598.368C1322.97 598.24 1322.64 598.176 1322.33 598.176C1322 598.176 1321.69 598.208 1321.42 598.272C1321.15 598.336 1320.92 598.432 1320.73 598.56C1320.55 598.688 1320.41 598.848 1320.32 599.04C1320.22 599.232 1320.17 599.448 1320.17 599.688C1320.19 599.896 1320.24 600.096 1320.32 600.288C1320.41 600.464 1320.54 600.616 1320.7 600.744C1320.88 600.872 1321.14 601.008 1321.49 601.152C1321.85 601.296 1322.29 601.432 1322.84 601.56C1323.64 601.768 1324.29 602 1324.81 602.256C1325.33 602.496 1325.75 602.776 1326.05 603.096C1326.37 603.4 1326.6 603.752 1326.73 604.152C1326.85 604.552 1326.92 605 1326.92 605.496C1326.92 606.216 1326.71 606.864 1326.29 607.44C1325.89 608 1325.35 608.44 1324.66 608.76C1323.97 609.08 1323.21 609.24 1322.36 609.24Z" fill="black"/>
<g filter="url(#filter4_d_1_2)">
<path d="M594.732 560V470.4H608.556V546.688H650.54V560H594.732ZM662.013 560L696.701 470.4H710.781L745.213 560H730.493L710.013 505.984C709.757 505.387 709.245 503.936 708.477 501.632C707.794 499.328 706.983 496.768 706.045 493.952C705.106 491.136 704.253 488.576 703.485 486.272C702.717 483.883 702.205 482.347 701.949 481.664L704.893 481.536C704.381 482.987 703.741 484.821 702.973 487.04C702.29 489.259 701.522 491.605 700.669 494.08C699.901 496.555 699.133 498.901 698.365 501.12C697.597 503.253 696.957 505.045 696.444 506.496L676.093 560H662.013ZM677.373 537.728L682.493 524.416H723.197L729.085 537.728H677.373ZM760.982 560V470.4H796.054C802.454 470.4 808.214 471.467 813.334 473.6C818.539 475.733 822.976 478.805 826.646 482.816C830.315 486.827 833.131 491.563 835.094 497.024C837.056 502.485 838.038 508.544 838.038 515.2C838.038 521.856 837.056 527.957 835.094 533.504C833.131 538.965 830.315 543.701 826.646 547.712C823.062 551.637 818.667 554.667 813.462 556.8C808.256 558.933 802.454 560 796.054 560H760.982ZM774.806 548.096L774.422 546.688H795.414C799.936 546.688 803.947 545.963 807.446 544.512C811.03 543.061 814.016 541.013 816.406 538.368C818.88 535.637 820.758 532.309 822.038 528.384C823.318 524.459 823.958 520.064 823.958 515.2C823.958 510.336 823.318 505.984 822.038 502.144C820.758 498.219 818.88 494.891 816.406 492.16C813.931 489.429 810.944 487.339 807.446 485.888C803.947 484.437 799.936 483.712 795.414 483.712H774.038L774.806 482.56V548.096ZM856.092 560L851.868 549.504L879.26 518.656C880.71 517.12 882.204 515.371 883.74 513.408C885.361 511.36 886.897 509.269 888.348 507.136C889.798 505.003 890.95 502.912 891.804 500.864C892.742 498.731 893.212 496.725 893.212 494.848C893.212 492.117 892.657 489.813 891.548 487.936C890.524 485.973 888.988 484.48 886.94 483.456C884.977 482.432 882.588 481.92 879.772 481.92C877.297 481.92 874.865 482.645 872.476 484.096C870.086 485.547 867.91 487.595 865.948 490.24C863.985 492.885 862.449 495.957 861.34 499.456L850.716 492.8C852.166 487.851 854.342 483.627 857.244 480.128C860.23 476.544 863.772 473.813 867.868 471.936C872.049 470.059 876.572 469.12 881.436 469.12C886.47 469.12 890.95 470.187 894.876 472.32C898.801 474.368 901.873 477.269 904.092 481.024C906.31 484.693 907.42 488.96 907.42 493.824C907.42 495.787 907.206 497.792 906.78 499.84C906.353 501.888 905.67 504.021 904.732 506.24C903.793 508.373 902.598 510.635 901.148 513.024C899.697 515.328 897.948 517.76 895.9 520.32C893.937 522.88 891.676 525.568 889.116 528.384L868.764 550.528L866.204 546.688H910.236V560H856.092ZM956.869 560V487.808L960.069 488.576L930.628 524.544L930.117 523.008H985.797V535.68H921.541L915.653 524.16L959.557 470.4H970.181V560H956.869ZM1020.76 560V483.712H995.668V470.4H1060.44V483.712H1034.58V560H1020.76ZM1077.48 560V470.4H1133.93V483.712H1091.31V546.688H1133.93V560H1077.48ZM1083.75 520.704V507.392H1126.89V520.704H1083.75ZM1192.46 561.28C1186.23 561.28 1180.51 560.171 1175.31 557.952C1170.1 555.733 1165.58 552.576 1161.74 548.48C1157.9 544.299 1154.91 539.392 1152.78 533.76C1150.73 528.128 1149.71 521.941 1149.71 515.2C1149.71 508.8 1150.82 502.869 1153.03 497.408C1155.34 491.861 1158.5 486.997 1162.51 482.816C1166.52 478.635 1171.17 475.392 1176.46 473.088C1181.75 470.784 1187.47 469.632 1193.61 469.632C1197.96 469.632 1202.19 470.315 1206.28 471.68C1210.46 472.96 1214.22 474.795 1217.55 477.184C1220.96 479.488 1223.73 482.133 1225.87 485.12L1216.65 494.72C1214.18 492.245 1211.66 490.197 1209.1 488.576C1206.62 486.869 1204.06 485.589 1201.42 484.736C1198.86 483.883 1196.26 483.456 1193.61 483.456C1189.43 483.456 1185.5 484.267 1181.83 485.888C1178.25 487.424 1175.09 489.6 1172.36 492.416C1169.72 495.232 1167.63 498.603 1166.09 502.528C1164.55 506.368 1163.79 510.592 1163.79 515.2C1163.79 520.064 1164.51 524.501 1165.96 528.512C1167.5 532.437 1169.63 535.808 1172.36 538.624C1175.09 541.44 1178.34 543.616 1182.09 545.152C1185.93 546.603 1190.15 547.328 1194.76 547.328C1197.58 547.328 1200.35 546.944 1203.08 546.176C1205.81 545.408 1208.37 544.299 1210.76 542.848C1213.15 541.397 1215.33 539.691 1217.29 537.728L1224.2 548.992C1222.24 551.296 1219.55 553.387 1216.14 555.264C1212.81 557.141 1209.06 558.635 1204.87 559.744C1200.78 560.768 1196.64 561.28 1192.46 561.28ZM1301.48 560V470.4H1315.3V560H1301.48ZM1242.98 560V470.4H1256.81V560H1242.98ZM1249 521.984V508.672H1307.62V521.984H1249Z" fill="#0B4D8A"/>
</g>
<g filter="url(#filter5_d_1_2)">
<rect x="78.5" y="257.5" width="1282" height="509" stroke="#127BDE" shape-rendering="crispEdges"/>
</g>
<defs>
<filter id="filter0_d_1_2" x="113.8" y="279.8" width="464.4" height="464.4" filterUnits="userSpaceOnUse" color-interpolation-filters="sRGB">
<feFlood flood-opacity="0" result="BackgroundImageFix"/>
<feColorMatrix in="SourceAlpha" type="matrix" values="0 0 0 0 0 0 0 0 0 0 0 0 0 0 0 0 0 0 127 0" result="hardAlpha"/>
<feOffset/>
<feGaussianBlur stdDeviation="0.1"/>
<feComposite in2="hardAlpha" operator="out"/>
<feColorMatrix type="matrix" values="0 0 0 0 0 0 0 0 0 0 0 0 0 0 0 0 0 0 0.25 0"/>
<feBlend mode="normal" in2="BackgroundImageFix" result="effect1_dropShadow_1_2"/>
<feBlend mode="normal" in="SourceGraphic" in2="effect1_dropShadow_1_2" result="shape"/>
</filter>
<filter id="filter1_d_1_2" x="114" y="278.7" width="498.3" height="482.6" filterUnits="userSpaceOnUse" color-interpolation-filters="sRGB">
<feFlood flood-opacity="0" result="BackgroundImageFix"/>
<feColorMatrix in="SourceAlpha" type="matrix" values="0 0 0 0 0 0 0 0 0 0 0 0 0 0 0 0 0 0 127 0" result="hardAlpha"/>
<feOffset dx="25" dy="8"/>
<feGaussianBlur stdDeviation="4.65"/>
<feComposite in2="hardAlpha" operator="out"/>
<feColorMatrix type="matrix" values="0 0 0 0 0 0 0 0 0 0 0 0 0 0 0 0 0 0 0.25 0"/>
<feBlend mode="normal" in2="BackgroundImageFix" result="effect1_dropShadow_1_2"/>
<feBlend mode="normal" in="SourceGraphic" in2="effect1_dropShadow_1_2" result="shape"/>
</filter>
<filter id="filter2_d_1_2" x="193.324" y="360.324" width="311.351" height="311.351" filterUnits="userSpaceOnUse" color-interpolation-filters="sRGB">
<feFlood flood-opacity="0" result="BackgroundImageFix"/>
<feColorMatrix in="SourceAlpha" type="matrix" values="0 0 0 0 0 0 0 0 0 0 0 0 0 0 0 0 0 0 127 0" result="hardAlpha"/>
<feOffset dx="3" dy="4"/>
<feGaussianBlur stdDeviation="12"/>
<feComposite in2="hardAlpha" operator="out"/>
<feColorMatrix type="matrix" values="0 0 0 0 0 0 0 0 0 0 0 0 0 0 0 0 0 0 0.25 0"/>
<feBlend mode="normal" in2="BackgroundImageFix" result="effect1_dropShadow_1_2"/>
<feBlend mode="normal" in="SourceGraphic" in2="effect1_dropShadow_1_2" result="shape"/>
</filter>
<filter id="filter3_d_1_2" x="250.433" y="417.433" width="197.135" height="197.135" filterUnits="userSpaceOnUse" color-interpolation-filters="sRGB">
<feFlood flood-opacity="0" result="BackgroundImageFix"/>
<feColorMatrix in="SourceAlpha" type="matrix" values="0 0 0 0 0 0 0 0 0 0 0 0 0 0 0 0 0 0 127 0" result="hardAlpha"/>
<feOffset dx="3" dy="4"/>
<feGaussianBlur stdDeviation="12"/>
<feComposite in2="hardAlpha" operator="out"/>
<feColorMatrix type="matrix" values="0 0 0 0 0 0 0 0 0 0 0 0 0 0 0 0 0 0 0.25 0"/>
<feBlend mode="normal" in2="BackgroundImageFix" result="effect1_dropShadow_1_2"/>
<feBlend mode="normal" in="SourceGraphic" in2="effect1_dropShadow_1_2" result="shape"/>
</filter>
<filter id="filter4_d_1_2" x="590.732" y="469.12" width="728.57" height="100.16" filterUnits="userSpaceOnUse" color-interpolation-filters="sRGB">
<feFlood flood-opacity="0" result="BackgroundImageFix"/>
<feColorMatrix in="SourceAlpha" type="matrix" values="0 0 0 0 0 0 0 0 0 0 0 0 0 0 0 0 0 0 127 0" result="hardAlpha"/>
<feOffset dy="4"/>
<feGaussianBlur stdDeviation="2"/>
<feComposite in2="hardAlpha" operator="out"/>
<feColorMatrix type="matrix" values="0 0 0 0 0 0 0 0 0 0 0 0 0 0 0 0 0 0 0.25 0"/>
<feBlend mode="normal" in2="BackgroundImageFix" result="effect1_dropShadow_1_2"/>
<feBlend mode="normal" in="SourceGraphic" in2="effect1_dropShadow_1_2" result="shape"/>
</filter>
<filter id="filter5_d_1_2" x="74" y="257" width="1291" height="518" filterUnits="userSpaceOnUse" color-interpolation-filters="sRGB">
<feFlood flood-opacity="0" result="BackgroundImageFix"/>
<feColorMatrix in="SourceAlpha" type="matrix" values="0 0 0 0 0 0 0 0 0 0 0 0 0 0 0 0 0 0 127 0" result="hardAlpha"/>
<feOffset dy="4"/>
<feGaussianBlur stdDeviation="2"/>
<feComposite in2="hardAlpha" operator="out"/>
<feColorMatrix type="matrix" values="0 0 0 0 0 0 0 0 0 0 0 0 0 0 0 0 0 0 0.25 0"/>
<feBlend mode="normal" in2="BackgroundImageFix" result="effect1_dropShadow_1_2"/>
<feBlend mode="normal" in="SourceGraphic" in2="effect1_dropShadow_1_2" result="shape"/>
</filter>
<linearGradient id="paint0_linear_1_2" x1="346" y1="280" x2="389.892" y2="1769.19" gradientUnits="userSpaceOnUse">
<stop stop-color="#2B81CF" stop-opacity="0.979969"/>
<stop offset="0.9998" stop-color="#2C81CF"/>
<stop offset="0.9999" stop-color="#247ACB" stop-opacity="0.694568"/>
<stop offset="1" stop-color="#123767" stop-opacity="0"/>
</linearGradient>
<linearGradient id="paint1_linear_1_2" x1="346.001" y1="275.89" x2="389.892" y2="1765.08" gradientUnits="userSpaceOnUse">
<stop stop-color="#127BDE"/>
<stop offset="0.386359" stop-color="#247ACB" stop-opacity="0.694568"/>
<stop offset="1" stop-color="#123767" stop-opacity="0"/>
</linearGradient>
<linearGradient id="paint2_linear_1_2" x1="346.001" y1="275.89" x2="389.892" y2="1765.08" gradientUnits="userSpaceOnUse">
<stop stop-color="#127BDE"/>
<stop offset="0.386359" stop-color="#247ACB" stop-opacity="0.694568"/>
<stop offset="1" stop-color="#123767" stop-opacity="0"/>
</linearGradient>
<linearGradient id="paint3_linear_1_2" x1="346.001" y1="275.89" x2="389.892" y2="1765.08" gradientUnits="userSpaceOnUse">
<stop stop-color="#127BDE"/>
<stop offset="0.386359" stop-color="#247ACB" stop-opacity="0.694568"/>
<stop offset="1" stop-color="#123767" stop-opacity="0"/>
</linearGradient>
<linearGradient id="paint4_linear_1_2" x1="346.001" y1="275.89" x2="389.892" y2="1765.08" gradientUnits="userSpaceOnUse">
<stop stop-color="#127BDE"/>
<stop offset="0.386359" stop-color="#247ACB" stop-opacity="0.694568"/>
<stop offset="1" stop-color="#123767" stop-opacity="0"/>
</linearGradient>
<linearGradient id="paint5_linear_1_2" x1="346.001" y1="275.89" x2="389.892" y2="1765.08" gradientUnits="userSpaceOnUse">
<stop stop-color="#127BDE"/>
<stop offset="0.386359" stop-color="#247ACB" stop-opacity="0.694568"/>
<stop offset="1" stop-color="#123767" stop-opacity="0"/>
</linearGradient>
<linearGradient id="paint6_linear_1_2" x1="346" y1="380.324" x2="370.911" y2="1225.54" gradientUnits="userSpaceOnUse">
<stop stop-color="#2E89E9"/>
<stop offset="1" stop-color="#123767" stop-opacity="0"/>
</linearGradient>
</defs>
</svg>
